
<svg xmlns="http://www.w3.org/2000/svg" viewBox="0 0 800 400" width="100%" height="100%" style="background-color: #0b0c10; border-radius: 6px;">
  <defs>
    <!-- Fonts -->
    <style>
      @import url('https://fonts.googleapis.com/css2?family=Share+Tech+Mono&amp;display=swap');
      .neon-text {
        text-shadow: 0 0 5px rgba(0, 240, 255, 0.6);
      }
      .glitch-text {
        animation: glitch 4s infinite;
      }
      @keyframes glitch {
        0%, 95%, 100% { transform: translate(0); }
        96% { transform: translate(-2px, 1px); color: #ff0055; }
        97% { transform: translate(2px, -1px); color: #00ff66; }
        98% { transform: translate(-1px, -2px); color: #00f0ff; }
        99% { transform: translate(1px, 2px); }
      }
      .scanline {
        background: linear-gradient(
          to bottom,
          rgba(255,255,255,0),
          rgba(255,255,255,0) 50%,
          rgba(0, 240, 255, 0.04) 50%,
          rgba(0, 240, 255, 0.04)
        );
        background-size: 100% 4px;
      }
    </style>

    <!-- Glowing Filters -->
    <filter id="glow-cyan">
      <feGaussianBlur stdDeviation="3" result="coloredBlur"/>
      <feMerge>
        <feMergeNode in="coloredBlur"/>
        <feMergeNode in="SourceGraphic"/>
      </feMerge>
    </filter>
    <filter id="glow-red">
      <feGaussianBlur stdDeviation="4" result="coloredBlur"/>
      <feMerge>
        <feMergeNode in="coloredBlur"/>
        <feMergeNode in="SourceGraphic"/>
      </feMerge>
    </filter>
  </defs>

  <!-- Cyberpunk Background Grid -->
  <pattern id="grid" width="20" height="20" patternUnits="userSpaceOnUse">
    <path d="M 20 0 L 0 0 0 20" fill="none" stroke="rgba(0, 240, 255, 0.02)" stroke-width="1"/>
  </pattern>
  <rect width="800" height="400" fill="url(#grid)" />

  <!-- Terminal Bezel Frame -->
  <rect x="10" y="10" width="780" height="380" fill="none" stroke="#1d2030" stroke-width="1.5" rx="4" />
  <path d="M 10 30 L 790 30" stroke="#1d2030" stroke-width="1.5" />
  <path d="M 10 300 L 790 300" stroke="#1d2030" stroke-width="1.5" />
  
  <!-- Corner Tech Accents -->
  <path d="M 10 40 L 10 10 L 40 10" fill="none" stroke="#ff0055" stroke-width="2" />
  <path d="M 790 40 L 790 10 L 760 10" fill="none" stroke="#ff0055" stroke-width="2" />
  <path d="M 10 360 L 10 390 L 40 390" fill="none" stroke="#ff0055" stroke-width="2" />
  <path d="M 790 360 L 790 390 L 760 390" fill="none" stroke="#ff0055" stroke-width="2" />

  <!-- HEADER -->
  <text x="25" y="24" fill="#ff0055" font-family="'Share Tech Mono', monospace" font-size="14" font-weight="bold" class="glitch-text" letter-spacing="1">
    ☠ VASTOWORM.SYS :: INFILTRATION_PROTOCOL_ACTIVE
  </text>
  
  <!-- Running indicator -->
  <g transform="translate(720, 15)">
    <circle cx="10" cy="5" r="4" fill="#00ff66">
      <animate attributeName="opacity" values="1;0.2;1" dur="1s" repeatCount="indefinite" />
    </circle>
    <text x="22" y="9" fill="#8892b0" font-family="'Share Tech Mono', monospace" font-size="10" letter-spacing="1">
      SYS_STAGE: <tspan fill="#00ff66">DORMANT</tspan>
    </text>
  </g>

  <!-- LEFT COLUMN: SYSTEM VITALS -->
  <g transform="translate(15, 45)">
    <!-- Section Border -->
    <rect x="10" y="10" width="310" height="235" fill="rgba(10, 11, 16, 0.7)" stroke="#1d2030" stroke-width="1" rx="3" />
    <text x="25" y="30" fill="#00f0ff" font-family="'Share Tech Mono', monospace" font-size="12" font-weight="bold" letter-spacing="1">
      [ SYSTEM VITALS ]
    </text>

    <!-- Vital 1: Global Infection Rate -->
    <g transform="translate(25, 45)">
      <text x="0" y="10" fill="#8892b0" font-family="'Share Tech Mono', monospace" font-size="11" letter-spacing="1">
        GLOBAL INFECTION RATE
      </text>
      <text x="260" y="10" fill="#ff0055" font-family="'Share Tech Mono', monospace" font-size="12" font-weight="bold" text-anchor="end" class="neon-text">
        14.6%
      </text>
      <g transform="translate(0, 18)">
        <!-- Background track -->
        <rect x="0" y="0" width="260" height="6" fill="#1a1c24" rx="3" />
        <!-- Filled bar -->
        <rect x="0" y="0" width="37.908" height="6" fill="#ff0055" rx="3" filter="url(#glow-red)" />
      </g>
    </g>

    <!-- Vital 2: Data Integrity -->
    <g transform="translate(25, 95)">
      <text x="0" y="10" fill="#8892b0" font-family="'Share Tech Mono', monospace" font-size="11" letter-spacing="1">
        VIRUS DATA INTEGRITY
      </text>
      <text x="260" y="10" fill="#ffaa00" font-family="'Share Tech Mono', monospace" font-size="12" font-weight="bold" text-anchor="end">
        43.5%
      </text>
      <g transform="translate(0, 18)">
        <rect x="30" y="0" width="10" height="15" fill="#ffaa00" rx="2" /><rect x="45" y="0" width="10" height="15" fill="#ffaa00" rx="2" /><rect x="60" y="0" width="10" height="15" fill="#ffaa00" rx="2" /><rect x="75" y="0" width="10" height="15" fill="#ffaa00" rx="2" /><rect x="90" y="0" width="10" height="15" fill="#ffaa00" rx="2" /><rect x="105" y="0" width="10" height="15" fill="#ffaa00" rx="2" /><rect x="120" y="0" width="10" height="15" fill="#ffaa00" rx="2" /><rect x="135" y="0" width="10" height="15" fill="#1a1c24" rx="2" /><rect x="150" y="0" width="10" height="15" fill="#1a1c24" rx="2" /><rect x="165" y="0" width="10" height="15" fill="#1a1c24" rx="2" /><rect x="180" y="0" width="10" height="15" fill="#1a1c24" rx="2" /><rect x="195" y="0" width="10" height="15" fill="#1a1c24" rx="2" /><rect x="210" y="0" width="10" height="15" fill="#1a1c24" rx="2" /><rect x="225" y="0" width="10" height="15" fill="#1a1c24" rx="2" /><rect x="240" y="0" width="10" height="15" fill="#1a1c24" rx="2" /><rect x="255" y="0" width="10" height="15" fill="#1a1c24" rx="2" /><rect x="270" y="0" width="10" height="15" fill="#1a1c24" rx="2" />
      </g>
    </g>

    <!-- Vital 3: Processor Load -->
    <g transform="translate(25, 145)">
      <text x="0" y="10" fill="#8892b0" font-family="'Share Tech Mono', monospace" font-size="11" letter-spacing="1">
        HOST CPU UTILIZATION
      </text>
      <text x="260" y="10" fill="#00f0ff" font-family="'Share Tech Mono', monospace" font-size="12" font-weight="bold" text-anchor="end">
        18%
      </text>
      <g transform="translate(0, 18)">
        <!-- Pulse graph line simulation -->
        <rect x="0" y="0" width="260" height="25" fill="#16171f" rx="3" />
        <path d="M 5 15 L 40 15 L 50 5 L 60 20 L 70 12 L 100 12 L 110 2 L 120 23 L 130 10 L 160 10 L 170 20 L 180 5 L 190 15 L 255 15" 
              fill="none" stroke="#00f0ff" stroke-width="1.5">
          <animate attributeName="stroke-dasharray" values="300;0;300" dur="5.1s" repeatCount="indefinite" />
        </path>
      </g>
    </g>

    <!-- Vital 4: Network Security Shield Resistance -->
    <g transform="translate(25, 205)">
      <text x="0" y="10" fill="#8892b0" font-family="'Share Tech Mono', monospace" font-size="11" letter-spacing="1">
        FIREWALL PENETRATION RESISTANCE
      </text>
      <text x="260" y="10" fill="#00f0ff" font-family="'Share Tech Mono', monospace" font-size="12" font-weight="bold" text-anchor="end">
        SHD_LVL: 10
      </text>
    </g>
  </g>

  <!-- RIGHT COLUMN: WORLD INFECTION MAP -->
  <g transform="translate(340, 45)">
    <rect x="10" y="10" width="420" height="235" fill="rgba(10, 11, 16, 0.7)" stroke="#1d2030" stroke-width="1" rx="3" />
    <text x="25" y="30" fill="#00f0ff" font-family="'Share Tech Mono', monospace" font-size="12" font-weight="bold" letter-spacing="1">
      [ GLOBAL INFECTION TOPOLOGY ]
    </text>

    <!-- Stylized Dotted World Map Outline (Backdrop) -->
    <!-- Major continents outlines simplified into neon hex dots -->
    <g opacity="0.1" fill="#00f0ff">
      <!-- North America -->
      <circle cx="380" cy="100" r="1.5" /><circle cx="400" cy="90" r="1.5" /><circle cx="410" cy="110" r="1.5" /><circle cx="430" cy="120" r="1.5" /><circle cx="450" cy="110" r="1.5" /><circle cx="400" cy="120" r="1.5" />
      <!-- South America -->
      <circle cx="460" cy="190" r="1.5" /><circle cx="480" cy="200" r="1.5" /><circle cx="490" cy="220" r="1.5" /><circle cx="500" cy="240" r="1.5" /><circle cx="510" cy="210" r="1.5" />
      <!-- Europe -->
      <circle cx="520" cy="90" r="1.5" /><circle cx="530" cy="100" r="1.5" /><circle cx="540" cy="90" r="1.5" /><circle cx="550" cy="110" r="1.5" />
      <!-- Africa -->
      <circle cx="530" cy="160" r="1.5" /><circle cx="550" cy="170" r="1.5" /><circle cx="560" cy="190" r="1.5" /><circle cx="580" cy="220" r="1.5" /><circle cx="590" cy="240" r="1.5" /><circle cx="570" cy="180" r="1.5" />
      <!-- Asia -->
      <circle cx="610" cy="100" r="1.5" /><circle cx="630" cy="110" r="1.5" /><circle cx="650" cy="90" r="1.5" /><circle cx="670" cy="110" r="1.5" /><circle cx="690" cy="100" r="1.5" /><circle cx="710" cy="120" r="1.5" /><circle cx="660" cy="140" r="1.5" /><circle cx="640" cy="150" r="1.5" /><circle cx="680" cy="160" r="1.5" />
      <!-- Australia -->
      <circle cx="720" cy="230" r="1.5" /><circle cx="740" cy="240" r="1.5" /><circle cx="750" cy="250" r="1.5" /><circle cx="730" cy="260" r="1.5" />
    </g>

    <!-- Map Connections and Infection Nodes -->
    
      <line x1="450" y1="120" x2="540" y2="100" stroke="rgba(0,240,255,0.15)" stroke-width="1" stroke-dasharray="none" />
      
    
      <line x1="540" y1="100" x2="650" y2="160" stroke="rgba(0,240,255,0.15)" stroke-width="1" stroke-dasharray="none" />
      
    
      <line x1="650" y1="160" x2="730" y2="120" stroke="rgba(0,240,255,0.15)" stroke-width="1" stroke-dasharray="none" />
      
    
      <line x1="730" y1="120" x2="750" y2="240" stroke="rgba(0,240,255,0.15)" stroke-width="1" stroke-dasharray="none" />
      
    
      <line x1="450" y1="120" x2="500" y2="230" stroke="rgba(0,240,255,0.15)" stroke-width="1" stroke-dasharray="none" />
      
    
      <line x1="500" y1="230" x2="580" y2="240" stroke="rgba(0,240,255,0.15)" stroke-width="1" stroke-dasharray="none" />
      
    
      <line x1="580" y1="240" x2="650" y2="160" stroke="rgba(0,240,255,0.15)" stroke-width="1" stroke-dasharray="none" />
      
    
      <line x1="450" y1="120" x2="730" y2="120" stroke="rgba(0,240,255,0.15)" stroke-width="1" stroke-dasharray="none" />
      
    
      <line x1="500" y1="230" x2="750" y2="240" stroke="rgba(0,240,255,0.15)" stroke-width="1" stroke-dasharray="none" />
      
    
    
      <g>
        <circle cx="450" cy="120" r="5" fill="none" stroke="#ff0055" stroke-width="1.5">
           <animate attributeName="r" values="5;12;5" dur="2s" repeatCount="indefinite" />
           <animate attributeName="opacity" values="0.8;0;0.8" dur="2s" repeatCount="indefinite" />
         </circle>
        <circle cx="450" cy="120" r="5" fill="#ff0055" filter="url(#glow-NA)" />
        <text x="450" y="108" fill="#ff0055" font-family="'Share Tech Mono', monospace" font-size="9" text-anchor="middle" letter-spacing="1">
          US-NY
        </text>
        <filter id="glow-NA">
          <feGaussianBlur stdDeviation="2" result="coloredBlur"/>
          <feMerge>
            <feMergeNode in="coloredBlur"/>
            <feMergeNode in="SourceGraphic"/>
          </feMerge>
        </filter>
      </g>
    
      <g>
        
        <circle cx="540" cy="100" r="3" fill="#00f0ff" filter="url(#glow-EU)" />
        <text x="540" y="88" fill="#00f0ff" font-family="'Share Tech Mono', monospace" font-size="9" text-anchor="middle" letter-spacing="1">
          UK-LDN
        </text>
        <filter id="glow-EU">
          <feGaussianBlur stdDeviation="2" result="coloredBlur"/>
          <feMerge>
            <feMergeNode in="coloredBlur"/>
            <feMergeNode in="SourceGraphic"/>
          </feMerge>
        </filter>
      </g>
    
      <g>
        
        <circle cx="500" cy="230" r="3" fill="#00f0ff" filter="url(#glow-SA)" />
        <text x="500" y="218" fill="#00f0ff" font-family="'Share Tech Mono', monospace" font-size="9" text-anchor="middle" letter-spacing="1">
          BR-RJO
        </text>
        <filter id="glow-SA">
          <feGaussianBlur stdDeviation="2" result="coloredBlur"/>
          <feMerge>
            <feMergeNode in="coloredBlur"/>
            <feMergeNode in="SourceGraphic"/>
          </feMerge>
        </filter>
      </g>
    
      <g>
        
        <circle cx="580" cy="240" r="3" fill="#00f0ff" filter="url(#glow-AF)" />
        <text x="580" y="228" fill="#00f0ff" font-family="'Share Tech Mono', monospace" font-size="9" text-anchor="middle" letter-spacing="1">
          ZA-JNB
        </text>
        <filter id="glow-AF">
          <feGaussianBlur stdDeviation="2" result="coloredBlur"/>
          <feMerge>
            <feMergeNode in="coloredBlur"/>
            <feMergeNode in="SourceGraphic"/>
          </feMerge>
        </filter>
      </g>
    
      <g>
        
        <circle cx="650" cy="160" r="3" fill="#00f0ff" filter="url(#glow-IN)" />
        <text x="650" y="148" fill="#00f0ff" font-family="'Share Tech Mono', monospace" font-size="9" text-anchor="middle" letter-spacing="1">
          IN-BOM
        </text>
        <filter id="glow-IN">
          <feGaussianBlur stdDeviation="2" result="coloredBlur"/>
          <feMerge>
            <feMergeNode in="coloredBlur"/>
            <feMergeNode in="SourceGraphic"/>
          </feMerge>
        </filter>
      </g>
    
      <g>
        
        <circle cx="730" cy="120" r="3" fill="#00f0ff" filter="url(#glow-JP)" />
        <text x="730" y="108" fill="#00f0ff" font-family="'Share Tech Mono', monospace" font-size="9" text-anchor="middle" letter-spacing="1">
          JP-TKY
        </text>
        <filter id="glow-JP">
          <feGaussianBlur stdDeviation="2" result="coloredBlur"/>
          <feMerge>
            <feMergeNode in="coloredBlur"/>
            <feMergeNode in="SourceGraphic"/>
          </feMerge>
        </filter>
      </g>
    
      <g>
        
        <circle cx="750" cy="240" r="3" fill="#00f0ff" filter="url(#glow-AU)" />
        <text x="750" y="228" fill="#00f0ff" font-family="'Share Tech Mono', monospace" font-size="9" text-anchor="middle" letter-spacing="1">
          AU-SYD
        </text>
        <filter id="glow-AU">
          <feGaussianBlur stdDeviation="2" result="coloredBlur"/>
          <feMerge>
            <feMergeNode in="coloredBlur"/>
            <feMergeNode in="SourceGraphic"/>
          </feMerge>
        </filter>
      </g>
    
  </g>

  <!-- BOTTOM PANEL: TERMINAL DECODING LOG -->
  <g>
    <!-- Section Border -->
    <rect x="25" y="310" width="750" height="65" fill="rgba(10, 11, 16, 0.9)" stroke="#1d2030" stroke-width="1" rx="3" />
    
    <!-- Pulse scan line simulated inside log window -->
    <line x1="25" y1="310" x2="775" y2="310" stroke="#00f0ff" stroke-width="0.5" opacity="0.8">
      <animate attributeName="y1" values="310;375;310" dur="4s" repeatCount="indefinite" />
      <animate attributeName="y2" values="310;375;310" dur="4s" repeatCount="indefinite" />
    </line>

    <text x="35" y="325" fill="#8892b0" font-family="'Share Tech Mono', monospace" font-size="9" letter-spacing="1">
      TERMINAL FEEDOUT::ACTIVE_LOGS
    </text>
    
    <!-- Blinking command cursor -->
    <rect x="760" y="350" width="8" height="12" fill="#00ff66">
      <animate attributeName="opacity" values="1;0;1" dur="1s" repeatCount="indefinite" />
    </rect>

    <text x="35" y="335" fill="#00ff66" font-family="'Share Tech Mono', monospace" font-size="11" opacity="0.9">
      &gt; [12:46] Payload injected by @tobianakondra. Spread +6.0%
    </text><text x="35" y="353" fill="#00ff66" font-family="'Share Tech Mono', monospace" font-size="11" opacity="0.9">
      &gt; [12:48] Antivirus deployed by @tobianakondra. Mitigation: 10% (Net: -10.9%)
    </text><text x="35" y="371" fill="#00ff66" font-family="'Share Tech Mono', monospace" font-size="11" opacity="0.9">
      &gt; [15:31] Payload injected by @tobianakondra. Spread +6.0%
    </text>
  </g>
</svg>
